<?xml version="1.0" encoding="utf-8"?>
<!-- Svg Vector Icons : http://www.sfont.cn -->
<!DOCTYPE svg PUBLIC "-//W3C//DTD SVG 1.1//EN" "http://www.w3.org/Graphics/SVG/1.1/DTD/svg11.dtd">
<svg version="1.1" xmlns="http://www.w3.org/2000/svg" xmlns:xlink="http://www.w3.org/1999/xlink" x="0px" y="0px" viewBox="0 0 1000 1000" enable-background="new 0 0 1000 1000" xml:space="preserve">
<metadata> Svg Vector Icons : http://www.sfont.cn </metadata>
<g><path d="M892,140.7H108c-54.1,0-98,43.9-98,98v522.7c0,54.1,43.9,98,98,98h784c54.1,0,98-43.9,98-98V238.7C990,184.5,946.1,140.7,892,140.7z M957.3,731.4c0,54.1-43.9,98-98,98H140.7c-54.1,0-98-43.9-98-98V268.6c0-54.1,43.9-98,98-98h718.7c54.1,0,98,43.9,98,98V731.4z"/><path d="M881.4,643.1l21.3-24.8L687.7,434l171.7-171.7l-23.7-23.7L483.4,590.9L152.2,259.8l-23.1,23.1l167.6,167.6L108,639.2l24.1,24.1l188.7-188.7l167.6,167.6l23.1-23.1l-4.5-4.5l157.4-157.4L881.4,643.1z"/></g>
</svg>